<?xml version="1.0" encoding="UTF-8" standalone="no"?>
<!-- Created with Inkscape (http://www.inkscape.org/) -->

<svg
   xmlns:dc="http://purl.org/dc/elements/1.1/"
   xmlns:cc="http://creativecommons.org/ns#"
   xmlns:rdf="http://www.w3.org/1999/02/22-rdf-syntax-ns#"
   xmlns:svg="http://www.w3.org/2000/svg"
   xmlns="http://www.w3.org/2000/svg"
   xmlns:sodipodi="http://sodipodi.sourceforge.net/DTD/sodipodi-0.dtd"
   xmlns:inkscape="http://www.inkscape.org/namespaces/inkscape"
   width="51.19228mm"
   height="95.66864mm"
   viewBox="0 0 181.38997 338.98336"
   id="svg4790"
   version="1.1"
   inkscape:version="0.91 r13725"
   sodipodi:docname="nur-das-grosse-i-von-impulsgriffe-logo-25-03-17-01-auf-20-prozent-reduziert-01.svg">
  <defs
     id="defs4792">
    <clipPath
       clipPathUnits="userSpaceOnUse"
       id="clipPath7299">
      <path
         inkscape:connector-curvature="0"
         d="m 0,841.89 595.276,0 L 595.276,0 0,0 0,841.89 Z"
         id="path7301" />
    </clipPath>
    <clipPath
       clipPathUnits="userSpaceOnUse"
       id="clipPath7307">
      <path
         inkscape:connector-curvature="0"
         d="m 233.956,574 127.044,0 0,-304 -127.044,0 0,304 z"
         id="path7309" />
    </clipPath>
  </defs>
  <sodipodi:namedview
     id="base"
     pagecolor="#ffffff"
     bordercolor="#666666"
     borderopacity="1.0"
     inkscape:pageopacity="0.0"
     inkscape:pageshadow="2"
     inkscape:zoom="1"
     inkscape:cx="321.47104"
     inkscape:cy="93.01107"
     inkscape:document-units="px"
     inkscape:current-layer="layer1"
     showgrid="false"
     fit-margin-left="0.2"
     fit-margin-top="0.2"
     fit-margin-right="0.2"
     fit-margin-bottom="0.2"
     inkscape:window-width="1440"
     inkscape:window-height="845"
     inkscape:window-x="-4"
     inkscape:window-y="-4"
     inkscape:window-maximized="1" />
  <metadata
     id="metadata4795">
    <rdf:RDF>
      <cc:Work
         rdf:about="">
        <dc:format>image/svg+xml</dc:format>
        <dc:type
           rdf:resource="http://purl.org/dc/dcmitype/StillImage" />
        <dc:title></dc:title>
      </cc:Work>
    </rdf:RDF>
  </metadata>
  <g
     inkscape:label="Ebene 1"
     inkscape:groupmode="layer"
     id="layer1"
     transform="translate(-18.396805,-713.73225)">
    <g
       transform="matrix(3.4360485,0,0,4.7873135,118.41799,146.2151)"
       style="font-style:normal;font-variant:normal;font-weight:normal;font-stretch:normal;font-size:12.5px;line-height:125%;font-family:'Caslon Initials';-inkscape-font-specification:'Caslon Initials';letter-spacing:0.09px;word-spacing:0px;display:inline;fill:#000000;fill-opacity:1;stroke:none;stroke-width:1px;stroke-linecap:butt;stroke-linejoin:miter;stroke-opacity:1"
       id="flowRoot3557">
      <g
         id="g4372"
         transform="matrix(1,0,0,1.0304824,0,-4.8120922)">
        <path
           inkscape:connector-curvature="0"
           id="path3570"
           d="m 12.962325,128.21119 c 0,2.69496 -1.514245,5.04991 -4.5427353,7.06484 -3.0030407,1.98974 -6.184228,2.98462 -9.5435618,2.98462 -3.3338843,0 -5.9297332,-0.66745 -7.7875467,-2.00235 -1.8578122,-1.36008 -2.7867192,-3.0098 -2.7867192,-4.94916 0,-1.93938 0.712585,-3.70244 2.1377571,-5.28919 1.425172,-1.58676 3.2702607,-2.83349 5.535266,-3.74021 2.2904548,-0.90672 4.77178094,-1.36008 7.4439782,-1.36008 2.6721973,0 4.9244779,0.70522 6.7568417,2.11567 1.857813,1.38526 2.78672,3.11056 2.78672,5.17586 z"
           style="font-style:normal;font-variant:normal;font-weight:normal;font-stretch:normal;font-size:91.37154388px;font-family:'Sonsie One';-inkscape-font-specification:'Sonsie One';fill:none;fill-opacity:1;stroke:#000000;stroke-width:2.13376713;stroke-miterlimit:4;stroke-dasharray:none;stroke-opacity:1" />
        <path
           style="font-style:normal;font-variant:normal;font-weight:normal;font-stretch:normal;font-size:91.37154388px;font-family:'Sonsie One';-inkscape-font-specification:'Sonsie One'"
           d="m 148.03125,105.20703 -75.730469,2.39649 c -9.91336,0 -14.871093,3.62987 -14.871093,10.89062 l 0.154296,8.27734 c 0,18.78464 -3.857093,43.78538 -11.544922,74.95899 0.341185,0.11812 0.653421,0.23348 1.074219,0.35742 2.977451,0.8787 20.598023,9.72474 22.980469,11.54102 0.818837,0.63587 2.521531,2.44354 3.75,4.03125 1.218092,1.59226 3.096959,3.65172 4.148438,4.58789 1.061894,0.93206 2.491416,2.32483 3.197265,3.08789 0.710514,0.76034 2.382225,2.23746 3.734375,3.27344 1.352503,1.03569 2.755319,2.29725 3.125,2.80078 2.269309,3.10973 3.247794,3.947 6.830078,5.98632 2.00614,1.14008 3.716302,2.25903 3.794922,2.48829 0.20268,0.63337 -0.786198,2.69579 -1.642578,3.38671 -0.45805,0.3673 -1.692775,0.8199 -3.140625,1.14649 -2.080278,0.46842 -2.708553,0.47696 -4.933594,0.0547 -5.06526,-0.95531 -9.714552,-3.39298 -11.597656,-6.08204 -0.335868,-0.5489 -1.067964,-1.14318 -1.552734,-1.35351 -0.494898,-0.20633 -1.278991,-0.70555 -1.765625,-1.09961 l -0.871094,-0.7207 0.355469,0.98632 c 1.125457,3.20885 5.388076,9.90214 8.724609,13.67188 1.40232,1.59055 3.374473,4.13326 4.386719,5.64844 0.993229,1.5235 2.857332,4.17547 4.15039,5.88867 1.244156,1.73392 3.13795,4.52952 4.22461,6.20703 1.03805,1.69857 2.528704,4.03768 3.302734,5.20313 5.639037,8.62339 5.930737,13.16458 0.835938,14.2832 -3.79317,0.83464 -6.253945,-1.00014 -11.472657,-8.52344 -1.00646,-1.44555 -2.814707,-3.80205 -4.041015,-5.22461 -1.235948,-1.419 -2.767655,-3.40214 -3.435547,-4.39453 -0.66726,-0.99221 -2.87333,-3.45326 -4.904297,-5.46875 -2.688452,-2.67911 -3.942203,-4.1553 -4.632813,-5.47656 -1.359246,-2.62689 -2.123277,-3.17234 -3.115234,-2.2207 -0.315139,0.28898 -0.132553,0.68578 1.023438,2.27539 8.539469,12.25303 10.456186,15.27037 13.480468,21.15429 0.918921,1.80529 2.17191,4.05857 2.757813,5.01758 1.101983,1.80317 3.280428,6.53172 3.789062,8.28906 0.429499,1.40697 -0.258034,4.31799 -1.197265,5.19532 -0.946961,0.88492 -3.150389,1.44091 -4.591797,1.15429 -1.420681,-0.28218 -3.536099,-1.54188 -4.34375,-2.59179 -0.355672,-0.48185 -1.853479,-2.82897 -3.21875,-5.26368 -1.462314,-2.39264 -3.593078,-5.67979 -4.810547,-7.26953 -2.032849,-2.62204 -2.983876,-4.07774 -5.150391,-7.62304 -0.405025,-0.66326 -1.258907,-1.85926 -1.925781,-2.64844 -1.476504,-1.81125 -2.614388,-3.6731 -4.072266,-6.66211 -1.19696,-2.46113 -4.203787,-6.67779 -4.720703,-6.55664 -0.272143,0.0581 0.657771,1.47684 2.048829,3.04883 0.377633,0.41662 1.150261,1.67997 1.716796,2.80859 0.567032,1.12839 1.772928,3.60569 2.734375,5.48047 0.961634,1.87481 2.296576,4.66427 3.023438,6.17578 0.736624,1.50729 2.6343,5.0144 4.308594,7.75391 3.237186,5.39737 3.670712,6.70955 3.09375,8.66211 -0.35731,1.19584 -1.713823,2.26703 -3.314453,2.61523 -1.465606,0.31766 -4.197762,-0.27107 -5.40625,-1.16211 -0.568285,-0.42702 -2.150811,-2.48385 -3.675782,-4.78711 -1.477771,-2.21892 -3.598643,-5.48379 -4.785156,-7.22461 -1.186514,-1.74024 -3.035626,-4.66653 -4.146484,-6.48437 -1.110853,-1.81777 -2.07478,-3.39595 -2.191407,-3.48633 -0.06812,-0.11243 -0.86557,-1.51729 -1.636718,-3.18164 -0.77144,-1.66485 -1.851977,-3.7341 -2.335938,-4.62695 -1.263211,-2.26803 -3.959136,-5.67153 -4.365234,-5.58204 -0.220793,0.0417 -0.13642,0.38059 0.205078,0.93946 0.292899,0.47903 1.050232,1.91855 1.65625,3.21093 0.605644,1.29299 1.306722,2.64264 1.53125,3.00977 0.225027,0.36686 0.563501,1.52415 0.755859,2.57227 0.258124,1.22711 1.274292,4.03793 2.988282,8.02929 2.958814,6.89339 3.164933,7.85378 2.076171,9.89453 -0.866843,1.62948 -1.429648,2.0466 -2.867187,2.12891 -1.573572,0.0908 -4.15372,-1.62675 -5.96875,-3.96289 -1.476634,-1.91403 -6.683077,-11.13744 -7.328125,-13.01758 -0.283946,-0.81143 -2.367731,-4.77938 -4.4375,-8.57617 -6.062053,20.76816 -9.142578,34.33015 -9.142578,40.44531 0,12.19813 4.446527,21.27469 13.33789,27.22852 8.891363,5.95383 19.927585,8.92969 33.111329,8.92969 21.257508,0 45.428832,-5.95372 72.511722,-17.86133 27.08288,-11.90762 45.83541,-23.37967 56.25976,-34.41602 3.16819,-3.48519 4.75195,-6.60617 4.75195,-9.36523 0,-6.09902 -2.14511,-9.14844 -6.4375,-9.14844 -2.14618,0 -5.92718,1.8865 -11.34374,5.66211 -5.41658,3.63037 -14.1032,7.84266 -26.06055,12.63476 -11.85515,4.64697 -21.25942,6.97071 -28.20899,6.97071 -6.43857,0 -9.65625,-4.7927 -9.65625,-14.37696 0,-9.5842 3.21768,-25.48518 9.65625,-47.70312 4.35789,-15.03798 8.71614,-30.30482 13.07422,-45.67578 -2.93636,2.03841 -6.15877,4.1599 -7.40039,4.78711 -2.76802,1.38792 -6.03519,1.97257 -7.55078,1.34375 -1.38396,-0.57414 -1.76454,-1.13196 -1.93945,-2.84571 -0.2229,-2.1477 0.38245,-2.90858 6.18359,-7.84179 3.35965,-2.85627 5.5374,-4.93201 6.30469,-5.9043 0.62662,-0.84084 1.44497,-1.72581 1.82031,-1.96484 0.37474,-0.23956 1.62895,-1.16111 2.76758,-2.06836 1.13758,-0.90744 2.48776,-1.88849 2.97656,-2.20117 0.57061,-0.36461 0.79754,-0.63099 0.59571,-0.74219 -0.36376,-0.21972 -4.44594,1.78484 -6.64063,3.30664 -0.85105,0.60361 -2.78289,2.0181 -4.24023,3.18945 -1.45718,1.17086 -2.83214,2.10734 -2.94532,2.18164 -0.15293,0.0375 -1.76492,1.06664 -3.62109,2.25196 -1.85615,1.18529 -4.90435,3.07029 -6.80273,4.16211 -1.89886,1.09192 -5.35564,3.17834 -7.74219,4.58203 -2.46763,1.46106 -4.88947,2.69043 -5.62891,2.86132 -1.56521,0.34865 -4.50841,-0.0969 -5.82226,-0.88476 -1.434784,-0.8611 -2.326652,-2.26371 -2.179692,-3.42383 0.24598,-1.89213 1.222938,-2.87517 6.673832,-6.41602 2.79756,-1.78635 6.13547,-4.15949 7.49218,-5.20703 1.34935,-1.05423 3.83399,-3.00208 5.56641,-4.28906 1.73232,-1.28704 3.9577,-3.00995 4.98828,-3.78906 1.03088,-0.77889 2.32227,-1.60143 2.86914,-1.83008 2.03013,-0.87455 3.53984,-1.77932 3.29492,-1.92383 -0.46029,-0.28618 -5.18847,2.31122 -7.39843,4.02344 -2.68816,2.07789 -4.58913,3.29098 -6.80274,4.34375 -0.98776,0.45025 -2.33248,1.1889 -3.00976,1.62109 -3.62013,2.31175 -5.16717,3.23964 -8.26954,4.79883 -1.86623,0.95056 -5.343804,3.04924 -7.787104,4.60938 -2.36496,1.63053 -4.823112,3.1402 -5.375,3.43359 -1.235895,0.62665 -3.850592,0.97677 -5.371094,0.72461 -1.542377,-0.25617 -3.487972,-1.50817 -4.052734,-2.60547 -0.560801,-1.08791 -0.02166,-3.84816 0.990234,-4.91601 1.235762,-1.34389 5.361912,-4.67583 7.203125,-5.85157 0.97915,-0.62532 3.157539,-2.13684 4.818359,-3.3789 5.444,-4.03654 8.598524,-5.9776 22.148434,-13.59961 1.80432,-0.97225 2.14908,-1.25276 1.95899,-1.61328 -0.58178,-1.17066 -1.56438,-0.96481 -4.00391,0.83398 -1.23384,0.9023 -3.08584,1.74172 -6.85937,3.12109 -2.84704,1.03479 -6.05351,2.39612 -7.12696,3.02149 -1.074036,0.62558 -3.415352,1.80731 -5.228512,2.60351 -1.80474,0.803 -4.572224,2.20789 -6.169922,3.10743 -8.295289,4.68842 -11.494303,5.41755 -14.890625,3.36914 -4.562592,-2.74965 -2.377019,-6.57833 6.792969,-12.07227 1.251052,-0.73841 3.701203,-2.24195 5.435547,-3.34961 1.773629,-1.07222 4.811001,-2.83238 6.763672,-3.89844 1.99226,-1.03119 4.942074,-2.6723 6.558593,-3.64453 1.632268,-0.95791 4.640438,-2.47068 6.689458,-3.35742 4.86896,-2.09693 11.87674,-6.40238 14.32812,-8.78711 l 0.76172,-0.72656 -1.16016,0.31836 c -0.64512,0.17101 -1.62824,0.32798 -2.20312,0.33398 -0.56663,0.0124 -1.53707,0.27086 -2.09766,0.62891 -2.98265,1.66962 -8.59241,2.15476 -13.99219,1.21094 -2.373046,-0.41263 -2.990492,-0.63781 -4.847652,-1.77149 -1.29292,-0.78896 -2.322694,-1.61365 -2.621094,-2.09179 -0.55683,-0.89752 -0.671541,-3.02832 -0.207031,-3.50586 0.17342,-0.17096 2.328206,-0.54252 4.785156,-0.82813 4.388471,-0.51306 5.704701,-0.89418 9.244141,-2.79297 0.57516,-0.30695 2.48795,-0.90801 4.25586,-1.33203 1.76786,-0.42398 4.03565,-1.11934 5.05469,-1.5293 1.0157,-0.41356 3.00964,-1.11873 4.44726,-1.55468 1.42926,-0.44271 4.14542,-1.56951 6.01367,-2.52149 1.87617,-0.94499 4.31061,-1.91553 5.38477,-2.17968 2.38619,-0.56714 15.29213,-1.57415 22.69531,-1.88868 0.0124,-0.46428 0.0254,-0.93191 0.0254,-1.37109 0,-2.75911 -0.66359,-5.22798 -1.99218,-7.40625 -1.3286,-2.32341 -3.32133,-3.48633 -5.97852,-3.48633 z"
           transform="matrix(0.29103198,0,0,0.20270644,-34.463423,119.13452)"
           id="path3566"
           inkscape:connector-curvature="0" />
      </g>
    </g>
  </g>
</svg>
